<svg xmlns="http://www.w3.org/2000/svg" xml:space="preserve" width="2000" height="95" data-id="lg_Nwf98gIQoJgLBDJQXO" data-version="1"><g data-padding="20"><g transform="translate(10 1.77)scale(.96276)"><path fill="#0ca5e7" stroke="null" d="m980.681 86.83-6.32-72.56q-.43-.22-1.25 2.45t-2.12 6.86q-1.31 4.2-2.78 9.48t-3.22 10.51q-1.74 5.23-3.48 9.75-1.75 4.53-3.49 7.14t-3.27 2.89q-1.52.27-2.72-3.11-.87-1.52-2.45-4.85-1.58-3.32-3.65-7.46l-4.36-8.72q-2.29-4.57-4.3-8.66-2.02-4.08-3.71-7.35t-2.45-4.79q-1.31-2.4-2.34-3.87-1.04-1.47-3.22-1.47 0 7.62.87 16.78.88 9.15 1.91 18.52 1.04 9.37 1.91 18.46.87 9.1.87 16.84.44.98-.27 1.85t-1.96 1.31q-1.26.43-2.73.05t-2.45-1.8q-.98-9.69-1.03-19.77-.06-10.08-.17-20.21t-.87-20.32-3.05-20.32q-.11-1.96.65-2.45.77-.49 1.97-.49 2.61 0 4.73 1.25 2.13 1.25 3.87 3.16 1.75 1.91 3.11 4.2 1.36 2.28 2.45 4.14.87 1.41 2.4 4.46l3.48 7.08q1.96 3.93 4.09 8.23 2.12 4.3 4.08 8.17t3.6 6.86q1.63 3 2.5 4.31.44 0 .77-.33.32-.33.92-1.85.6-1.53 1.64-4.69 1.03-3.16 2.88-8.71 1.86-5.56 4.58-14.06 2.72-8.49 6.65-20.7.21-.54 1.41-.98 1.2-.43 2.18-.43t1.36.65.6 2.18q.98 9.26 1.58 19.34t1.58 20.37q.98 10.3 2.45 20.43t4.09 19.28Zm13.51-15.04q-.76-5.01-.76-9.75t.6-9.64q.6-4.91 1.74-10.19 1.15-5.28 2.67-11.38 0-1.2.65-2.24.66-1.03 1.75-1.74t2.29-1.14q1.19-.44 2.28-.44 2.4 0 4.36 1.52 1.96 1.53 3.54 3.71t2.73 4.63q1.14 2.45 1.9 4.19.87 3.82 1.26 8.67.38 4.84.05 9.86-.33 5.01-1.53 9.86-1.19 4.84-3.37 8.87-2.18 4.04-5.61 6.76-3.44 2.72-8.12 3.38-2.51 0-3.81-1.69-1.31-1.69-1.91-4.14t-.65-4.96q-.06-2.5-.06-4.14Zm5.56-.33q0 1.09.05 2.07.06.98.22 1.91t.44 1.96q.27 1.04.7 2.34h.66q2.61 0 4.46-1.74 1.86-1.74 3.16-4.52 1.31-2.78 2.18-6.21.88-3.43 1.37-6.76.49-3.32.65-6.21.16-2.88.16-4.63v-2.18q0-1.41-.11-3.21t-.38-3.7q-.27-1.91-.81-3.49-.55-1.58-1.42-2.56t-2.29-.98q-2.4-.76-4.08.33-1.69 1.09-2.73 3.65-1.03 2.56-1.58 6.26-.54 3.7-.65 8.17t-.06 9.48q.06 5.01.06 10.02Zm24.29-9.8q.33-3.92.66-8.55.32-4.63 1.03-9.21t1.85-8.72q1.15-4.14 3.06-7.35 1.9-3.21 4.73-5.12 2.84-1.91 6.87-1.8 2.72 0 4.19 2.29t2.07 5.56q.6 3.26.66 6.7.05 3.43.05 5.61-2.18 0-3.59-1.91-1.42-1.91-2.18-4.41-.77-2.51-1.09-4.9l-.33-3.16q-.11 0-.38-.06-.27-.05-.38-.05-1.85 0-3.43 2.07t-2.95 5.28q-1.36 3.21-2.34 7.19t-1.63 7.79q-.66 3.81-1.04 7.03-.38 3.21-.38 4.96-.22 2.83 0 6.21.22 3.37 1.31 6.32 1.09 2.94 3.05 5.06 1.96 2.13 5.23 2.89 4.03 0 6.54-1.09 2.5-1.09 4.08-2.94t2.45-4.14 1.69-4.74 1.69-4.85 2.51-4.47q1.3-.32 1.9.06t.82 1.03q.22.66.22 1.53v1.2q0 4.57-1.53 8.82-1.52 4.25-4.46 7.57-2.95 3.33-7.03 5.34-4.09 2.02-9.32 2.02-4.36 0-7.24-2.78-2.89-2.78-4.47-6.7t-2.23-8.23q-.66-4.3-.66-7.35Zm43.58 27.45 3.16-86.07q2.29-2.18 3.65-1.74t2.02 2.94q.65 2.51.76 6.54t-.05 9.1q-.17 5.06-.6 10.67-.44 5.61-.77 11.01-.32 5.39-.43 10.29-.11 4.91.33 8.5h.32q.22 0 .33-.11 5.67-5.66 10.13-11.98 4.47-6.32 8.06-11.93 3.6-5.61 6.38-9.75t5.17-5.67q1.64 0 2.78.55 1.15.54 1.15 2.5 0 .22-.06.71-.05.49-.05.71-2.73 5.55-6 11.17-3.26 5.61-7.08 10.84-3.81 5.23-8.22 9.91-4.42 4.69-9.54 8.5 0 .11-.05.38-.06.27-.06.38 0 1.09 1.8 2.4t4.58 2.5q2.78 1.2 6.21 2.4t6.75 2.07q3.33.87 6.21 1.42 2.89.54 4.52.54 0 .44.06 1.64.05 1.19-.16 2.5-.22 1.31-.77 2.34-.54 1.04-1.74 1.04h-.44q-.21 0-.32-.11l-31.16-12.53q-.11 6.43-.87 10.41-.77 3.97-1.8 5.88-1.04 1.91-2.18 1.8t-2.02-1.75Zm57.64-4.03-5.45 1.31q-.33-3.05-.54-8.28-.22-5.23-.44-11.39-.22-6.15-.49-12.8-.27-6.64-.6-12.64-.33-5.99-.82-10.89t-1.03-7.84q0-2.18.98-2.56.98-.39 2.5-.39h.99q.76 0 1.08.11.99 3.27 1.26 8.45.27 5.17.43 11.27.17 6.1.33 12.64t.71 12.42q1.52-8.61 2.56-14.27 1.03-5.67 1.96-9.1t1.74-5.12q.82-1.69 1.86-2.23 1.03-.55 2.28-.49 1.26.05 3 .05 1.96 0 3.21 1.53 1.26 1.52 1.96 3.92.71 2.4 1.09 5.23.39 2.83.71 5.5.33 2.67.71 4.85t1.25 3.05q2.73-8.06 4.69-13.18t3.38-8.12q1.41-3 2.5-4.3 1.09-1.31 1.96-1.58.87-.28 1.58-.06t1.47.22q2.94 0 4.47 3.05 1.74 4.9 2.4 9.32.65 4.41.76 8.49.11 4.09.05 7.79-.05 3.71.22 7.19.27 3.49 1.2 6.87t3.21 6.64q-.87 1.75-1.74 2.35t-2.4.6q-1.3 0-2.28-.93t-1.64-2.29q-.65-1.36-1.03-2.78-.38-1.41-.71-2.5-.44-15.58-1.36-23.92-.93-8.33-2.78-8.77-1.85-.43-4.74 7.25t-7.14 24.02q-.32.55-.98.66-.65.1-1.36.1t-1.42-.05q-.7-.05-1.36.05-2.72-16.01-4.52-23.04t-3.65-5.39q-1.85 1.63-4.14 11.71t-5.88 28.27Zm85.74-1.2q-.54-2.83-.92-6.81-.39-3.97-.82-8.06-.44-4.08-1.04-7.68-.6-3.59-1.79-5.88-5.56 11.33-9.81 17.81t-7.46 9.26q-3.22 2.78-5.4 2.67-2.17-.11-3.59-1.96t-2.02-4.74-.81-5.39q0-2.4 1.09-6.76 1.09-4.35 2.94-9.53 1.85-5.17 4.41-10.51t5.5-9.7 6.1-7.19 6.32-2.83q4.69-.77 6.92 2.01t.82 9.32q0 7.19.6 12.31t1.3 9.8q.71 4.69 1.31 9.81t.6 12.31q0 1.31-.27 2.23-.27.93-2.67.93-.33 0-.82-.54-.49-.55-.49-.88Zm-5.88-48.7q-1.2-1.74-3.27-.32-2.07 1.41-4.36 4.68t-4.68 7.85q-2.4 4.57-4.47 9.26-2.07 4.68-3.6 8.88-1.52 4.19-2.07 6.91 0 3.93 1.2 4.42t2.94-1.26q1.75-1.74 3.98-5.01t4.36-6.97q2.12-3.7 4.03-7.19t3-5.67q.98-2.28 1.52-4.25.55-1.96.93-3.75.38-1.8.43-3.65.06-1.86.06-3.93Zm21.46 52.41-2.72-47.39q-1.09.54-2.02 1.14-.92.6-1.8 1.09-.87.49-1.74.71-.87.21-1.85 0-.65 0-1.09-.82t-.71-1.85q-.27-1.04-.38-2.07-.11-1.04 0-1.58l10.46-5.99.65-27.9q.22-1.41 1.75-1.14 1.52.27 3.16.71.21 0 .7.16.49.17.71.27-.22 2.95-.49 6.38t-.49 6.86-.27 6.7q-.06 3.27.27 5.89l16.34-4.58q.44-.11.71.6t.55 1.69q.27.98.38 1.96l.11.98-18.52 7.84q0 .98.16 4.69l.38 8.77q.22 5.07.44 10.89.21 5.83.43 10.84.22 5.02.33 8.77.11 3.76.11 4.74-.22 3.27-1.91 3.27t-3.65-1.63Zm27.46-24.41-1.64.33q-1.09.22-2.29.11-1.19-.11-2.12-.65-.93-.55-.93-1.86 0-.76.33-1.09.33-.32 1.09-.98 2.4-1.96 4.09-5.06 1.68-3.11 3.1-6.65t3-7.08 3.65-6.37q2.07-2.84 5.12-4.58t7.52-1.63q1.85 0 4.14.87 2.28.87 4.24 2.34 1.97 1.47 3.27 3.54 1.31 2.07 1.31 4.58.54.87-1.03 2.5-1.58 1.64-4.31 3.54-2.72 1.91-6.15 3.93-3.44 2.01-6.6 3.75-3.15 1.75-5.55 3.06-2.4 1.3-3.16 1.96-.55 1.09-.87 2.5-.33 1.42-.49 2.67-.17 1.25-.22 2.29-.06 1.03-.06 1.58 0 2.07-.16 4.58-.16 2.5.22 4.73.38 2.24 1.8 3.71 1.41 1.47 4.79 1.47 3.6 0 6.76-1.8 3.15-1.8 5.88-4.41 2.72-2.62 4.96-5.67 2.23-3.05 4.03-5.72 1.79-2.67 3.21-4.41t2.4-1.74q1.09 0 2.34.38t1.25 1.8q0 1.96-1.58 4.68-1.58 2.73-4.14 5.78t-5.88 6.04q-3.32 3-6.7 5.34t-6.65 3.82q-3.26 1.47-5.77 1.47-4.9 0-7.41-2.4t-3.54-5.99q-1.04-3.6-1.09-7.68-.05-4.09-.16-7.58Zm20.04-29.41q-1.85 0-3.92 1.79-2.07 1.8-3.87 4.36-1.79 2.56-2.94 5.23-1.14 2.67-1.14 4.42 1.63 0 4.74-1.26 3.1-1.25 6.15-3.1 3.05-1.86 5.34-3.93t2.29-3.92q0-.98-.76-1.63-.77-.66-1.8-1.09-1.04-.44-2.13-.65-1.08-.22-1.96-.22Z" font-family="Shadows Into Light" font-size="111.565"/><circle cx="323.087" cy="-267.656" r="6.4" fill="#5f6ae2" transform="matrix(1.98 0 0 1.28 162.691 355.092)"/><path fill="#5f6ae2" d="M843.784 44.62h-13.068c-.594 0-1.188-.256-1.188-.768-1.584-10.112-11.88-18.048-24.948-19.2-.792-.128-1.386.384-1.386.896l1.584 18.176c0 .512-.594 1.024-1.386 1.024h-3.564c-.792 0-1.386-.512-1.386-1.024l1.584-18.304c0-.512-.594-.896-1.386-.896-13.266.896-23.958 8.96-25.542 19.2 0 .384-.594.768-1.188.768h-11.088c-.594 0-1.188.384-1.188.768v4.224c0 .384.594.768 1.188.768h2.97c.594 0 1.188.256 1.188.768l5.94 43.264c0 .384.594.768 1.188.768h60.39c.594 0 1.188-.256 1.188-.768l5.94-43.264c0-.384.594-.768 1.188-.768h2.97c.594 0 1.188-.384 1.188-.768V45.26c.198-.384-.396-.64-1.188-.64m-55.638-.896c0 .384-.594.768-1.188.768h-2.574c-.792 0-1.386-.512-1.188-.896.396-1.792 1.386-3.584 2.772-5.12.594-.768 2.376-.384 2.376.384v4.864Zm30.294.896h-2.574c-.594 0-1.188-.384-1.188-.768v-4.864c0-.768 1.782-1.152 2.376-.384 1.386 1.536 2.178 3.2 2.772 5.12 0 .384-.594.896-1.386.896"/><circle cx="323.087" cy="-267.656" r="5.5" fill="#5f6ae2" transform="matrix(1.98 0 0 1.28 238.921 358.548)"/><path fill="#5f6ae2" d="M881.602 27.852a17.028 11.008 0 0 0-17.028 11.008v19.712c0 .768-.99 1.28-1.98 1.28H847.15a1.98 1.28 0 0 0-1.98 1.28v29.44c0 2.56 3.168 4.608 7.128 4.608s7.128-2.048 7.128-4.608V70.476c0-.768.99-1.28 1.98-1.28h35.442c1.188 0 1.98-.64 1.98-1.28V38.86c-.198-6.144-7.722-11.008-17.226-11.008"/></g><path fill="transparent" stroke="transparent" d="M731.5 0h537v95h-537z"/></g></svg>